<?xml version="1.0" standalone="no"?>
<!DOCTYPE svg PUBLIC "-//W3C//DTD SVG 20010904//EN"
 "http://www.w3.org/TR/2001/REC-SVG-20010904/DTD/svg10.dtd">
<svg version="1.0" xmlns="http://www.w3.org/2000/svg"
 width="240.000000pt" height="240.000000pt" viewBox="0 0 240.000000 240.000000"
 preserveAspectRatio="xMidYMid meet">

<g transform="translate(0.000000,240.000000) scale(0.100000,-0.100000)"
fill="#a4283a" stroke="none">
<path d="M980 1978 c-37 -19 -50 -34 -75 -86 -56 -115 -128 -142 -386 -142
-173 0 -217 -7 -256 -43 -37 -33 -30 -70 23 -127 51 -55 51 -49 8 -150 -28
-65 -28 -66 -25 -262 2 -183 1 -200 -20 -247 -24 -57 -62 -86 -124 -96 l-40
-7 0 -76 c0 -97 -9 -141 -39 -185 l-24 -35 29 -21 c21 -16 29 -30 29 -52 0
-33 27 -49 81 -49 24 0 29 4 29 25 0 25 1 25 24 10 23 -16 24 -15 19 4 -8 30
-58 69 -99 77 l-35 6 20 22 c24 25 26 47 16 128 -8 57 -7 58 21 69 18 7 63 9
120 5 l92 -5 64 48 c79 60 137 124 235 258 41 57 77 102 80 100 7 -8 -39 -122
-63 -154 l-24 -32 57 20 c73 25 103 22 318 -34 94 -24 214 -52 267 -62 53 -10
95 -22 93 -26 -3 -3 -25 -10 -49 -13 -35 -6 -45 -12 -50 -31 -3 -13 -21 -43
-39 -67 -49 -64 -107 -166 -107 -189 0 -13 7 -19 23 -19 33 0 61 -33 55 -65
-5 -24 -4 -25 48 -25 33 0 54 4 54 11 0 6 7 9 15 5 8 -3 15 -1 15 4 0 20 -41
50 -85 61 -27 7 -45 17 -45 26 0 26 31 88 58 116 34 36 130 105 205 147 31 17
57 34 57 36 0 2 -29 18 -65 35 -151 71 -199 188 -135 332 l19 42 -6 -71 c-6
-78 5 -126 39 -170 21 -26 178 -133 248 -169 126 -65 118 -114 -30 -184 -36
-17 -52 -29 -37 -26 24 5 28 3 25 -12 -2 -13 -14 -19 -45 -21 -43 -3 -49 -9
-63 -69 l-8 -33 59 0 c32 0 59 2 59 4 0 3 -5 17 -10 32 -10 25 -9 26 20 22 26
-4 41 5 108 66 87 79 100 95 112 136 14 49 -5 90 -79 165 -96 98 -101 108
-101 185 1 62 26 207 29 165 12 -157 19 -216 26 -223 4 -4 10 -2 12 4 13 36
73 121 100 141 l32 25 -30 -56 c-46 -84 -43 -141 10 -247 32 -65 40 -90 35
-115 -3 -17 -1 -41 5 -53 25 -46 114 -67 144 -33 8 9 23 46 32 82 9 36 32 94
52 128 l35 64 21 -20 c48 -45 117 -40 143 9 17 34 14 48 -6 24 -20 -24 -51
-18 -107 21 -46 32 -53 41 -53 70 0 23 -10 44 -32 70 l-33 37 58 -6 c63 -8
108 7 127 42 17 33 13 42 -16 31 -39 -15 -81 -12 -123 9 -67 35 -123 32 -141
-6 -12 -28 -12 -28 -22 -6 -23 50 24 119 75 109 l29 -6 -23 38 c-141 233 -315
403 -474 462 -106 39 -243 27 -355 -30 -19 -10 -87 -57 -150 -105 -193 -146
-216 -153 -482 -157 -186 -3 -198 -2 -225 18 -39 29 -42 68 -7 91 23 15 58 19
198 24 193 7 247 19 323 74 26 19 65 46 85 60 41 27 59 51 83 108 19 45 10 47
-55 15z m1048 -940 c14 -14 16 -58 3 -58 -7 0 -31 51 -31 66 0 8 17 3 28 -8z"/>
<path d="M755 961 c-16 -5 -47 -15 -68 -24 l-38 -17 40 -38 c38 -36 41 -43 41
-94 0 -48 4 -58 31 -84 17 -16 45 -49 62 -74 17 -25 41 -53 54 -63 13 -10 23
-29 23 -42 0 -49 110 -92 127 -49 3 8 12 13 19 10 18 -7 18 8 -1 44 -12 23
-28 33 -70 45 -54 16 -66 27 -44 41 7 4 -15 30 -55 66 -87 78 -87 95 -6 178
33 34 58 66 54 71 -14 24 -119 42 -169 30z"/>
</g>
</svg>
