<?xml version="1.0" standalone="no"?>
<!DOCTYPE svg PUBLIC "-//W3C//DTD SVG 20010904//EN"
 "http://www.w3.org/TR/2001/REC-SVG-20010904/DTD/svg10.dtd">
<svg version="1.0" xmlns="http://www.w3.org/2000/svg"
 width="300.000000pt" height="300.000000pt" viewBox="0 0 300.000000 300.000000"
 preserveAspectRatio="xMidYMid meet">

<g transform="translate(0.000000,300.000000) scale(0.100000,-0.100000)"
fill="#000000" stroke="none">
<path d="M1315 2989 c-503 -69 -929 -371 -1150 -814 -73 -147 -104 -234 -136
-385 -33 -151 -33 -429 0 -580 32 -151 63 -238 136 -385 145 -291 369 -515
660 -660 147 -73 234 -104 385 -136 151 -33 429 -33 580 0 151 32 238 63 385
136 291 145 515 369 660 660 73 147 104 234 136 385 19 88 23 136 23 290 0
154 -4 202 -23 290 -32 151 -63 238 -136 385 -145 291 -369 515 -660 660 -227
113 -389 153 -635 160 -85 2 -186 0 -225 -6z"/>
</g>
</svg>
